<svg width="80" height="80" viewBox="0 0 80 80" fill="none" xmlns="http://www.w3.org/2000/svg">
<rect width="80" height="80" fill="#19486A"/>
<path fill-rule="evenodd" clip-rule="evenodd" d="M27.1593 6.6944H25.5289V13.2368H26.6289V11.0176H27.1593C28.2681 11.0176 28.6729 10.4584 28.6729 9.5408V8.1616C28.6729 7.244 28.2681 6.6944 27.1593 6.6944ZM26.6288 10.168V7.5912H27.0328C27.412 7.5912 27.572 7.7664 27.572 8.1224V9.6272C27.572 9.9848 27.4096 10.168 27.0328 10.168H26.6288Z" fill="white"/>
<path fill-rule="evenodd" clip-rule="evenodd" d="M30.043 6.6944L28.8078 13.2368H29.8494L30.043 12.0368H31.2094L31.4118 13.2368H32.539L31.2958 6.6944H30.043ZM31.068 11.1616H30.188L30.624 8.53679H30.6336L31.068 11.1616Z" fill="white"/>
<path fill-rule="evenodd" clip-rule="evenodd" d="M34.1904 13.2408V10.24L35.22 13.2368H36.376L35.3248 10.2648C35.9544 10.1208 36.2048 9.7048 36.2048 9.0008V8.1616C36.2048 7.244 35.8 6.6944 34.6912 6.6944H33.0912V13.2408H34.1904ZM34.1903 9.6312V7.5952L34.5599 7.5912C34.9407 7.5912 35.1007 7.7664 35.1007 8.1224V9.0912C35.1007 9.4384 34.9367 9.6312 34.5599 9.6312H34.1903Z" fill="white"/>
<path d="M36.597 6.6944H39.5194V7.5912H38.6122V13.2368H37.5034V7.5912H36.597V6.6944Z" fill="white"/>
<path d="M41.1417 9.1264V13.2368H40.2161V6.6944H41.2945L42.4825 10.4472V6.6944H43.3977V13.2368H42.4337L41.1417 9.1264Z" fill="white"/>
<path d="M44.3009 6.6944H46.9233V7.5912H45.4009V9.4632H46.4905V10.352H45.4009V12.3392H46.9233V13.2368H44.3009V6.6944Z" fill="white"/>
<path fill-rule="evenodd" clip-rule="evenodd" d="M48.7079 13.2408V10.24L49.7391 13.2368H50.8943L49.8431 10.2648C50.4719 10.1208 50.7231 9.7048 50.7231 9.0008V8.1616C50.7231 7.244 50.3191 6.6944 49.2087 6.6944H47.6087V13.2408H48.7079ZM48.7078 9.6312V7.5952L49.075 7.5912C49.451 7.5912 49.615 7.7664 49.615 8.1224V9.0912C49.615 9.4384 49.451 9.6312 49.075 9.6312H48.7078Z" fill="white"/>
<path d="M51.272 11.8272V10.9472H52.2952V11.844C52.2952 12.2112 52.4552 12.4232 52.8336 12.4232C53.1816 12.4232 53.3352 12.1912 53.3352 11.844V11.6C53.3352 11.2232 53.1816 10.9912 52.8424 10.6728L52.1976 10.0256C51.5704 9.40959 51.2816 9.03199 51.2816 8.28079V8.05839C51.2816 7.24719 51.7544 6.61839 52.824 6.61839C53.9232 6.61839 54.3584 7.15839 54.3584 8.10479V8.63519H53.3544V8.06639C53.3544 7.68879 53.1816 7.50639 52.8336 7.50639C52.5248 7.50639 52.3136 7.68079 52.3136 8.04719V8.18239C52.3136 8.54959 52.5168 8.76079 52.8336 9.06959L53.5376 9.76399C54.136 10.372 54.424 10.7384 54.424 11.4624V11.7824C54.424 12.6808 53.944 13.316 52.824 13.316C51.704 13.316 51.272 12.6896 51.272 11.8304" fill="white"/>
<path d="M57.2613 10.352H56.2013V13.2368H55.1006V6.6944H56.2013V9.4648H57.2613V6.6944H58.3693V13.2368H57.2613V10.352Z" fill="white"/>
<rect x="59.0943" y="6.6944" width="1.09921" height="6.5416" fill="white"/>
<path fill-rule="evenodd" clip-rule="evenodd" d="M62.5598 6.6944H60.9262V13.2368H62.0302V11.0176H62.5598C63.6694 11.0176 64.0742 10.4584 64.0742 9.5408V8.1616C64.0742 7.244 63.6694 6.6944 62.5598 6.6944ZM62.026 10.168V7.5912H62.426C62.8068 7.5912 62.9668 7.7664 62.9668 8.1224V9.6272C62.9668 9.9848 62.8028 10.168 62.426 10.168H62.026Z" fill="white"/>
<path d="M64.4999 11.8272V10.9472H65.5199V11.844C65.5199 12.2112 65.6839 12.4232 66.0608 12.4232C66.4072 12.4232 66.5624 12.1912 66.5624 11.844V11.6C66.5624 11.2232 66.4072 10.9912 66.0704 10.6728L65.4239 10.0256C64.7975 9.40959 64.5079 9.03199 64.5079 8.28079V8.05839C64.5079 7.24719 64.9815 6.61839 66.0504 6.61839C67.1504 6.61839 67.5832 7.15839 67.5832 8.10479V8.63519H66.5832V8.06639C66.5832 7.68879 66.4088 7.50639 66.0624 7.50639C65.7535 7.50639 65.5423 7.68079 65.5423 8.04719V8.18239C65.5423 8.54959 65.7431 8.76079 66.0624 9.06959L66.7664 9.76399C67.364 10.372 67.6528 10.7384 67.6528 11.4624V11.7824C67.6528 12.6808 67.1728 13.316 66.0528 13.316C64.9327 13.316 64.5007 12.6896 64.5007 11.8304" fill="white"/>
<path d="M11.9703 6.7048V22.8336H9.25833V10.4872H9.23433L7.33113 12.4616H7.30793V9.6304L9.80633 6.7048H11.9703Z" fill="white"/>
<path d="M13.208 6.7048H20.0128V9.2024L16.4672 22.8336H13.7776L17.3944 8.9168H13.208V6.7048Z" fill="white"/>
<path d="M25.5302 16.1968H28.1462V17.1072H26.647V19.008H27.7638V19.908H26.647V22.8368H25.5302V16.1968Z" fill="white"/>
<path fill-rule="evenodd" clip-rule="evenodd" d="M28.5376 17.9104V21.12H28.5456C28.5456 22.148 29.04 22.912 30.2256 22.912C31.4112 22.912 31.92 22.148 31.92 21.12V17.9104C31.92 16.8728 31.3888 16.1184 30.2176 16.1184C29.0464 16.1184 28.5376 16.8704 28.5376 17.9104ZM30.8071 17.7344V21.296V21.2992C30.8071 21.7008 30.6215 21.9848 30.2295 21.9848C29.8375 21.9848 29.6623 21.6992 29.6623 21.2992V17.7344C29.6623 17.3328 29.8279 17.0488 30.2295 17.0488C30.6311 17.0488 30.8071 17.3344 30.8071 17.7344Z" fill="white"/>
<path fill-rule="evenodd" clip-rule="evenodd" d="M33.76 22.8368V19.7912L34.8056 22.8344H35.9792L34.9128 19.8176C35.5488 19.6736 35.804 19.252 35.804 18.5376V17.6856C35.804 16.7568 35.392 16.1968 34.2656 16.1968H32.64V22.8368H33.76ZM33.7598 19.1744V17.1072H34.1318C34.5134 17.1072 34.6806 17.2832 34.6806 17.6456V18.6256C34.6806 18.9784 34.5134 19.1744 34.1318 19.1744H33.7598Z" fill="white"/>
<path d="M37.5704 16.1968H40.5376V17.1072H39.6176V22.8368H38.4912V17.1072H37.5704V16.1968Z" fill="white"/>
<path d="M43.2504 19.908H42.1727V22.8368H41.0567V16.1968H42.1727V19.008H43.2504V16.1968H44.3768V22.8368H43.2504V19.908Z" fill="white"/>
<path d="M45.1033 16.1968H47.7673V17.1072H46.2201V19.008H47.3265V19.908H46.2201V21.9264H47.7673V22.8368H45.1033V16.1968Z" fill="white"/>
<path d="M51.3342 19.2912H52.9205V22.8368H52.1206V22.112C51.9742 22.612 51.6606 22.912 51.0534 22.912C50.0934 22.912 49.6526 22.148 49.6526 21.12V17.9104C49.6526 16.8704 50.1518 16.1184 51.3278 16.1184C52.5614 16.1184 52.9277 16.804 52.9277 17.7832V18.3704H51.9022V17.6952C51.9022 17.284 51.7422 17.0488 51.3422 17.0488C50.9422 17.0488 50.7646 17.3328 50.7646 17.7344V21.2992C50.7646 21.6992 50.9302 21.9848 51.3134 21.9848C51.675 21.9848 51.8614 21.7784 51.8614 21.3448V20.1728H51.3326L51.3342 19.2912Z" fill="white"/>
<path fill-rule="evenodd" clip-rule="evenodd" d="M53.5575 17.9104V21.12C53.5575 22.148 54.0519 22.912 55.2375 22.912C56.4231 22.912 56.9328 22.148 56.9328 21.12V17.9104C56.9328 16.8728 56.4087 16.1184 55.2375 16.1184C54.0663 16.1184 53.5575 16.8704 53.5575 17.9104ZM55.8201 17.7344V21.296V21.2992C55.8201 21.7008 55.6329 21.9848 55.2417 21.9848C54.8505 21.9848 54.6745 21.6992 54.6745 21.2992V17.7344C54.6745 17.3328 54.8401 17.0488 55.2417 17.0488C55.6433 17.0488 55.8201 17.3344 55.8201 17.7344Z" fill="white"/>
<path fill-rule="evenodd" clip-rule="evenodd" d="M58.5033 16.1968L57.2497 22.8368H58.3081L58.5033 21.6216H59.6889L59.8937 22.8368H61.0401L59.7769 16.1968H58.5033ZM59.5418 20.7312H58.6498L59.0914 18.0672H59.1002L59.5418 20.7312Z" fill="white"/>
<path d="M61.6793 16.1968H62.7961V21.9264H64.1273V22.8368H61.6793V16.1968Z" fill="white"/>
<path d="M64.528 21.4072V20.516H65.568V21.4264C65.568 21.7984 65.7352 22.0144 66.116 22.0144C66.4696 22.0144 66.6264 21.7784 66.6264 21.4264V21.172C66.6264 20.7896 66.4664 20.5552 66.1264 20.2312L65.4712 19.576C64.8312 18.9488 64.5408 18.5672 64.5408 17.8024V17.5776C64.5408 16.7552 65.0208 16.1184 66.1072 16.1184C67.2272 16.1184 67.6648 16.6664 67.6648 17.6264V18.1648H66.644V17.588C66.644 17.2056 66.4672 17.0192 66.1136 17.0192C65.8008 17.0192 65.5856 17.196 65.5856 17.568V17.7048C65.5856 18.0768 65.792 18.2928 66.1136 18.6064L66.8288 19.3112C67.4368 19.928 67.7312 20.3 67.7312 21.0344V21.3544C67.7312 22.2656 67.2408 22.912 66.1048 22.912C64.9688 22.912 64.528 22.272 64.528 21.404" fill="white"/>
<path fill-rule="evenodd" clip-rule="evenodd" d="M59.8608 48.5184C59.8608 42.9 55.3912 38.3104 49.8232 38.1072C48.353 33.9419 44.416 31.1564 39.9988 31.1564C35.5817 31.1564 31.6446 33.9419 30.1744 38.1072C24.6072 38.3104 20.1392 42.9008 20.1392 48.5184C20.1395 51.73 21.6236 54.7613 24.16 56.7312C23.8879 57.6714 23.7495 58.6452 23.7488 59.624C23.7488 65.3664 28.4232 70.0408 34.1696 70.0408C36.2692 70.0428 38.3198 69.4067 40.0496 68.2168C41.7594 69.3631 43.7719 69.9742 45.8304 69.972C51.576 69.972 56.2504 65.2976 56.2504 59.5544C56.2503 58.5959 56.1175 57.6421 55.856 56.72C58.3824 54.7488 59.8597 51.7236 59.8608 48.5192V48.5184ZM48.3199 41.576C48.3199 45.7472 45.2327 49.2 41.2254 49.7968C41.1558 49.3736 41.1195 48.9457 41.1166 48.5168C41.1229 44.3991 44.1386 40.9046 48.2111 40.296C48.2803 40.7192 48.3167 41.1472 48.3199 41.576ZM37.5076 59.6044C37.5226 61.8343 38.4345 63.9644 40.0378 65.5144C41.6205 63.9432 42.504 61.8009 42.489 59.5708C42.4739 57.3407 41.5616 55.2105 39.9578 53.6608C38.3756 55.2323 37.4925 57.3745 37.5076 59.6044ZM31.7865 40.2968L31.7888 40.2971C31.7197 40.72 31.6834 41.1475 31.6801 41.576C31.6801 45.7472 34.765 49.2 38.7706 49.7984C38.8404 49.3753 38.8771 48.9473 38.8802 48.5184C38.8802 44.3472 35.7949 40.8941 31.7888 40.2971L31.7889 40.296L31.7865 40.2968ZM33.1326 56.4325C35.2494 55.744 37.0004 54.2331 37.9915 52.24C36.0174 51.2113 33.7127 51.0197 31.5959 51.7083C29.4791 52.3968 27.7282 53.9077 26.7371 55.9008C28.7111 56.9294 31.0158 57.1211 33.1326 56.4325ZM41.9808 52.184C43.9657 51.1414 46.2881 50.9469 48.4188 51.6447C50.5495 52.3425 52.3068 53.8732 53.2904 55.888C51.3055 56.9306 48.9831 57.1251 46.8524 56.4273C44.7218 55.7295 42.9644 54.1988 41.9808 52.184ZM47.6279 38.2584C46.3055 35.2229 43.3109 33.2588 39.9999 33.2552C36.6889 33.259 33.6945 35.2231 32.3719 38.2584C35.715 38.8547 38.5598 41.0383 39.9999 44.1136C41.4411 41.0392 44.2854 38.8559 47.6279 38.2584ZM22.24 48.5184C22.2455 44.2699 25.4462 40.7057 29.6696 40.2448C29.2268 43.6158 30.4653 46.9897 32.984 49.2736C29.5965 49.6649 26.6136 51.686 24.9944 54.6872C23.2425 53.1149 22.2412 50.8724 22.24 48.5184ZM26.0288 57.8992C25.908 58.4662 25.8471 59.0443 25.8472 59.624C25.8432 62.6037 27.4356 65.3573 30.0203 66.8401C32.6049 68.3228 35.7858 68.3075 38.356 66.8C35.9958 64.3792 34.9637 60.96 35.5904 57.6376C32.6348 59.2723 29.0694 59.3698 26.0288 57.8992ZM54.153 59.5544C54.1573 62.5172 52.5834 65.2582 50.0224 66.748C47.4613 68.2377 44.3007 68.2509 41.7274 66.7824C44.0487 64.3449 45.0431 60.9326 44.3946 57.6296C47.3573 59.275 50.9361 59.3726 53.9842 57.8912C54.0964 58.4385 54.153 58.9957 54.153 59.5544ZM50.4193 41.576C50.4201 44.4759 49.2092 47.2442 47.0793 49.212C50.4598 49.6246 53.4266 51.6601 55.0281 54.6656C57.4578 52.4682 58.3691 49.048 57.3547 45.933C56.3403 42.818 53.5898 40.5901 50.3321 40.2448C50.389 40.6863 50.4182 41.1309 50.4193 41.576Z" fill="white"/>
</svg>
